<?xml version="1.0" standalone="no"?><!DOCTYPE svg PUBLIC "-//W3C//DTD SVG 1.1//EN" "http://www.w3.org/Graphics/SVG/1.1/DTD/svg11.dtd"><svg t="1692931141929" class="icon" viewBox="0 0 1024 1024" version="1.1" xmlns="http://www.w3.org/2000/svg" p-id="6183" xmlns:xlink="http://www.w3.org/1999/xlink" width="200" height="200"><path d="M184.081688 539.606474c111.325025-23.971136 95.969849-157.134634 92.813507-186.224162-5.459618-44.78593-58.264362-123.182633-129.836543-116.86995-89.998392 7.933508-103.135598 138.196583-103.135598 138.196584-12.241487 60.141106 29.089528 188.783357 140.158634 164.854874m206.655076-223.503116c61.420704 0 111.069106-70.804422 111.069105-158.243618 0-87.012664-49.477789-157.817086-110.898492-157.817086S279.539698 70.420543 279.539698 157.859739s49.904322 158.243618 111.325025 158.243619m264.748825 10.45005c82.320804 11.089849 134.869628-76.77588 145.532945-143.314975 10.663317-66.112563-42.653266-143.314975-100.661709-156.537488-58.434975-13.478432-130.518995 79.932221-137.77005 140.755779-7.677588 74.643216 10.663317 148.8599 92.557588 159.395257M981.185931 438.688845c0-31.819337-26.146452-127.661226-124.121006-127.661226-97.889246 0-111.325025 90.424925-111.325025 154.404824 0 60.994171 5.033085 145.874171 127.32 143.314976 121.775076-2.985729 108.467257-138.196583 108.467257-170.186534M857.491458 717.470595s-127.32-98.529045-201.579337-204.735679c-100.661709-156.836061-243.763418-92.984121-291.492423-13.478432-47.771658 80.316101-121.988342 130.604302-132.438392 144.04008-10.663317 13.222513-153.551759 90.424925-121.732423 231.180704 31.98995 140.755779 143.314975 138.196583 143.314976 138.196584s81.894272 8.104121 177.437588-13.222513 177.437588 5.118392 177.437588 5.118392 222.095558 74.643216 283.558916-68.671759c60.738251-143.741508-34.549146-217.958191-34.549146-217.958191" fill="" p-id="6184"></path></svg>