<svg width="1024" height="1024" xmlns="http://www.w3.org/2000/svg" t="1692931126377" class="icon" version="1.1" p-id="5178">
 <g>
  <title>Layer 1</title>
  <path stroke="null" d="m986.58131,422.15176l-464.74113,0l0,191.01594l265.49286,0c-11.44809,61.74253 -46.17826,113.96641 -98.53078,148.95384c-44.24881,29.58496 -100.71749,47.07867 -167.09071,47.07867c-128.50162,0 -237.1942,-86.82543 -276.04053,-203.49307c-9.7759,-29.58496 -15.43563,-61.228 -15.43563,-93.77146s5.65973,-64.1865 15.43563,-93.77146c38.97497,-116.53901 147.66754,-203.36444 276.16917,-203.36444c72.41884,0 137.37712,24.95427 188.57196,73.83376l141.49329,-141.62191c-85.53912,-79.75076 -197.06156,-128.63026 -330.06524,-128.63026c-192.81675,0 -359.6502,110.62203 -440.8159,271.92437c-33.44386,66.63047 -52.48115,142.00781 -52.48115,221.75857s19.03728,154.99946 52.48115,221.62994c81.16569,161.30235 247.99914,271.92437 440.8159,271.92437c133.26095,0 244.91201,-44.24881 326.4636,-119.62614c93.25694,-85.92501 147.15302,-212.49719 147.15302,-362.86596c0,-34.98743 -3.08713,-68.55993 -8.87548,-100.97476l-0.00002,-0.00001z" p-id="5179" id="svg_1"/>
 </g>

</svg>