<svg width="1024" height="1024" xmlns="http://www.w3.org/2000/svg" p-id="7364" version="1.1" class="icon" t="1692931305897">

 <g>
  <title>Layer 1</title>
  <path id="svg_1" p-id="7365" fill="#000000" d="m756.56533,697.25867c2.13334,1.49333 4.224,3.15733 6.10134,5.12l241.664,241.62133c16.256,16.256 16.512,43.52 -0.128,60.16a42.45333,42.45333 0 0 1 -60.20267,0.17067l-241.664,-241.664a41.42933,41.42933 0 0 1 -5.03467,-6.10134a424.91733,424.91733 0 0 1 -270.63466,96.768c-235.648,0 -426.66667,-191.01866 -426.66667,-426.66666s191.01867,-426.66667 426.66667,-426.66667s426.66666,191.01867 426.66666,426.66667c0,102.69866 -36.26666,196.94933 -96.768,270.592zm-329.89866,70.74133a341.33333,341.33333 0 1 0 0,-682.66667a341.33333,341.33333 0 0 0 0,682.66667z"/>
 </g>
</svg>